<mxfile host="app.diagrams.net" agent="Mozilla/5.0 (Windows NT 10.0; Win64; x64) AppleWebKit/537.36 (KHTML, like Gecko) Chrome/141.0.0.0 Safari/537.36" version="28.2.7">
  <diagram name="Page-1" id="kuvThUPn8oQIpRiZPH5r">
    <mxGraphModel dx="2316" dy="3371" grid="1" gridSize="10" guides="1" tooltips="1" connect="1" arrows="1" fold="1" page="1" pageScale="1" pageWidth="850" pageHeight="1100" math="0" shadow="0">
      <root>
        <mxCell id="0" />
        <mxCell id="1" parent="0" />
        <mxCell id="35-wJfqYu5Ba8Wp97kXi-1" value="End&lt;div&gt;&lt;br&gt;&lt;/div&gt;" style="strokeWidth=2;html=1;shape=mxgraph.flowchart.terminator;whiteSpace=wrap;" vertex="1" parent="1">
          <mxGeometry x="350" y="-910" width="100" height="60" as="geometry" />
        </mxCell>
        <mxCell id="35-wJfqYu5Ba8Wp97kXi-2" value="Start" style="strokeWidth=2;html=1;shape=mxgraph.flowchart.terminator;whiteSpace=wrap;" vertex="1" parent="1">
          <mxGeometry x="350" y="-2180" width="100" height="60" as="geometry" />
        </mxCell>
        <mxCell id="35-wJfqYu5Ba8Wp97kXi-3" value="int left = 0" style="shape=parallelogram;html=1;strokeWidth=2;perimeter=parallelogramPerimeter;whiteSpace=wrap;rounded=1;arcSize=12;size=0.23;" vertex="1" parent="1">
          <mxGeometry x="290" y="-2110" width="200" height="30" as="geometry" />
        </mxCell>
        <mxCell id="35-wJfqYu5Ba8Wp97kXi-5" value="int right = array.lenght -1" style="shape=parallelogram;html=1;strokeWidth=2;perimeter=parallelogramPerimeter;whiteSpace=wrap;rounded=1;arcSize=12;size=0.23;" vertex="1" parent="1">
          <mxGeometry x="270" y="-2060" width="200" height="30" as="geometry" />
        </mxCell>
        <mxCell id="35-wJfqYu5Ba8Wp97kXi-6" style="edgeStyle=orthogonalEdgeStyle;rounded=0;orthogonalLoop=1;jettySize=auto;html=1;exitX=0.5;exitY=1;exitDx=0;exitDy=0;" edge="1" parent="1" source="35-wJfqYu5Ba8Wp97kXi-5" target="35-wJfqYu5Ba8Wp97kXi-5">
          <mxGeometry relative="1" as="geometry" />
        </mxCell>
        <mxCell id="35-wJfqYu5Ba8Wp97kXi-7" value="int flag = 1" style="shape=parallelogram;html=1;strokeWidth=2;perimeter=parallelogramPerimeter;whiteSpace=wrap;rounded=1;arcSize=12;size=0.23;" vertex="1" parent="1">
          <mxGeometry x="260" y="-2010" width="200" height="30" as="geometry" />
        </mxCell>
        <mxCell id="35-wJfqYu5Ba8Wp97kXi-8" style="edgeStyle=orthogonalEdgeStyle;rounded=0;orthogonalLoop=1;jettySize=auto;html=1;exitX=0.5;exitY=1;exitDx=0;exitDy=0;exitPerimeter=0;entryX=0.536;entryY=0;entryDx=0;entryDy=0;entryPerimeter=0;" edge="1" parent="1" source="35-wJfqYu5Ba8Wp97kXi-2" target="35-wJfqYu5Ba8Wp97kXi-3">
          <mxGeometry relative="1" as="geometry" />
        </mxCell>
        <mxCell id="35-wJfqYu5Ba8Wp97kXi-9" style="edgeStyle=orthogonalEdgeStyle;rounded=0;orthogonalLoop=1;jettySize=auto;html=1;exitX=0.5;exitY=1;exitDx=0;exitDy=0;entryX=0.6;entryY=-0.013;entryDx=0;entryDy=0;entryPerimeter=0;" edge="1" parent="1" source="35-wJfqYu5Ba8Wp97kXi-3" target="35-wJfqYu5Ba8Wp97kXi-5">
          <mxGeometry relative="1" as="geometry" />
        </mxCell>
        <mxCell id="35-wJfqYu5Ba8Wp97kXi-10" style="edgeStyle=orthogonalEdgeStyle;rounded=0;orthogonalLoop=1;jettySize=auto;html=1;exitX=0.5;exitY=1;exitDx=0;exitDy=0;entryX=0.562;entryY=-0.04;entryDx=0;entryDy=0;entryPerimeter=0;" edge="1" parent="1" source="35-wJfqYu5Ba8Wp97kXi-5" target="35-wJfqYu5Ba8Wp97kXi-7">
          <mxGeometry relative="1" as="geometry" />
        </mxCell>
        <mxCell id="35-wJfqYu5Ba8Wp97kXi-19" style="edgeStyle=orthogonalEdgeStyle;rounded=0;orthogonalLoop=1;jettySize=auto;html=1;exitX=0;exitY=0.5;exitDx=0;exitDy=0;exitPerimeter=0;entryX=0.5;entryY=0;entryDx=0;entryDy=0;shadow=1;" edge="1" parent="1" source="35-wJfqYu5Ba8Wp97kXi-11" target="35-wJfqYu5Ba8Wp97kXi-69">
          <mxGeometry relative="1" as="geometry">
            <mxPoint x="100" y="-1900" as="targetPoint" />
          </mxGeometry>
        </mxCell>
        <mxCell id="35-wJfqYu5Ba8Wp97kXi-11" value="left &amp;lt; right and flag &amp;gt; 0" style="strokeWidth=2;html=1;shape=mxgraph.flowchart.decision;whiteSpace=wrap;" vertex="1" parent="1">
          <mxGeometry x="290" y="-1970" width="160" height="80" as="geometry" />
        </mxCell>
        <mxCell id="35-wJfqYu5Ba8Wp97kXi-12" style="edgeStyle=orthogonalEdgeStyle;rounded=0;orthogonalLoop=1;jettySize=auto;html=1;exitX=0.5;exitY=1;exitDx=0;exitDy=0;entryX=0.5;entryY=0;entryDx=0;entryDy=0;entryPerimeter=0;" edge="1" parent="1" source="35-wJfqYu5Ba8Wp97kXi-7" target="35-wJfqYu5Ba8Wp97kXi-11">
          <mxGeometry relative="1" as="geometry" />
        </mxCell>
        <mxCell id="35-wJfqYu5Ba8Wp97kXi-21" style="edgeStyle=orthogonalEdgeStyle;rounded=0;orthogonalLoop=1;jettySize=auto;html=1;exitX=0.5;exitY=1;exitDx=0;exitDy=0;entryX=0.5;entryY=0;entryDx=0;entryDy=0;" edge="1" parent="1" source="35-wJfqYu5Ba8Wp97kXi-13" target="35-wJfqYu5Ba8Wp97kXi-14">
          <mxGeometry relative="1" as="geometry" />
        </mxCell>
        <mxCell id="35-wJfqYu5Ba8Wp97kXi-13" value="flag = 0" style="shape=parallelogram;html=1;strokeWidth=2;perimeter=parallelogramPerimeter;whiteSpace=wrap;rounded=1;arcSize=12;size=0.23;" vertex="1" parent="1">
          <mxGeometry x="230" y="-1880" width="230" height="30" as="geometry" />
        </mxCell>
        <mxCell id="35-wJfqYu5Ba8Wp97kXi-14" value="int i = left" style="shape=parallelogram;html=1;strokeWidth=2;perimeter=parallelogramPerimeter;whiteSpace=wrap;rounded=1;arcSize=12;size=0.23;" vertex="1" parent="1">
          <mxGeometry x="240" y="-1840" width="210" height="30" as="geometry" />
        </mxCell>
        <mxCell id="35-wJfqYu5Ba8Wp97kXi-15" value="i &amp;lt;&amp;nbsp;&lt;span style=&quot;background-color: transparent; color: light-dark(rgb(0, 0, 0), rgb(255, 255, 255));&quot;&gt;right&lt;/span&gt;&lt;div&gt;&lt;div&gt;&lt;br&gt;&lt;/div&gt;&lt;/div&gt;" style="strokeWidth=2;html=1;shape=mxgraph.flowchart.decision;whiteSpace=wrap;" vertex="1" parent="1">
          <mxGeometry x="260" y="-1790" width="170" height="70" as="geometry" />
        </mxCell>
        <mxCell id="35-wJfqYu5Ba8Wp97kXi-30" style="edgeStyle=orthogonalEdgeStyle;rounded=0;orthogonalLoop=1;jettySize=auto;html=1;exitX=0;exitY=0.5;exitDx=0;exitDy=0;exitPerimeter=0;entryX=0;entryY=0.75;entryDx=0;entryDy=0;" edge="1" parent="1" source="35-wJfqYu5Ba8Wp97kXi-16">
          <mxGeometry relative="1" as="geometry">
            <mxPoint x="295" y="-1450" as="targetPoint" />
          </mxGeometry>
        </mxCell>
        <mxCell id="35-wJfqYu5Ba8Wp97kXi-67" style="edgeStyle=orthogonalEdgeStyle;rounded=0;orthogonalLoop=1;jettySize=auto;html=1;exitX=1;exitY=0.5;exitDx=0;exitDy=0;exitPerimeter=0;" edge="1" parent="1" source="35-wJfqYu5Ba8Wp97kXi-16" target="35-wJfqYu5Ba8Wp97kXi-65">
          <mxGeometry relative="1" as="geometry">
            <Array as="points">
              <mxPoint x="530" y="-1685" />
            </Array>
          </mxGeometry>
        </mxCell>
        <mxCell id="35-wJfqYu5Ba8Wp97kXi-16" value="arr[i] &amp;gt; arr[i+1]" style="strokeWidth=2;html=1;shape=mxgraph.flowchart.decision;whiteSpace=wrap;" vertex="1" parent="1">
          <mxGeometry x="265" y="-1720" width="160" height="70" as="geometry" />
        </mxCell>
        <mxCell id="35-wJfqYu5Ba8Wp97kXi-20" style="edgeStyle=orthogonalEdgeStyle;rounded=0;orthogonalLoop=1;jettySize=auto;html=1;exitX=0.5;exitY=1;exitDx=0;exitDy=0;exitPerimeter=0;entryX=0.609;entryY=0;entryDx=0;entryDy=0;entryPerimeter=0;" edge="1" parent="1" source="35-wJfqYu5Ba8Wp97kXi-11" target="35-wJfqYu5Ba8Wp97kXi-13">
          <mxGeometry relative="1" as="geometry" />
        </mxCell>
        <mxCell id="35-wJfqYu5Ba8Wp97kXi-22" style="edgeStyle=orthogonalEdgeStyle;rounded=0;orthogonalLoop=1;jettySize=auto;html=1;exitX=0.5;exitY=1;exitDx=0;exitDy=0;entryX=0.5;entryY=0;entryDx=0;entryDy=0;entryPerimeter=0;" edge="1" parent="1" source="35-wJfqYu5Ba8Wp97kXi-14" target="35-wJfqYu5Ba8Wp97kXi-15">
          <mxGeometry relative="1" as="geometry" />
        </mxCell>
        <mxCell id="35-wJfqYu5Ba8Wp97kXi-23" style="edgeStyle=orthogonalEdgeStyle;rounded=0;orthogonalLoop=1;jettySize=auto;html=1;exitX=0.5;exitY=1;exitDx=0;exitDy=0;exitPerimeter=0;entryX=0.5;entryY=0;entryDx=0;entryDy=0;entryPerimeter=0;" edge="1" parent="1" source="35-wJfqYu5Ba8Wp97kXi-15" target="35-wJfqYu5Ba8Wp97kXi-16">
          <mxGeometry relative="1" as="geometry" />
        </mxCell>
        <mxCell id="35-wJfqYu5Ba8Wp97kXi-34" style="edgeStyle=orthogonalEdgeStyle;rounded=0;orthogonalLoop=1;jettySize=auto;html=1;exitX=0.5;exitY=1;exitDx=0;exitDy=0;entryX=0.5;entryY=0;entryDx=0;entryDy=0;" edge="1" parent="1">
          <mxGeometry relative="1" as="geometry">
            <mxPoint x="510" y="-1640" as="sourcePoint" />
            <mxPoint x="510" y="-1620" as="targetPoint" />
          </mxGeometry>
        </mxCell>
        <mxCell id="35-wJfqYu5Ba8Wp97kXi-35" style="edgeStyle=orthogonalEdgeStyle;rounded=0;orthogonalLoop=1;jettySize=auto;html=1;exitX=0.5;exitY=1;exitDx=0;exitDy=0;entryX=0.5;entryY=0;entryDx=0;entryDy=0;" edge="1" parent="1">
          <mxGeometry relative="1" as="geometry">
            <mxPoint x="510" y="-1580" as="sourcePoint" />
            <mxPoint x="510" y="-1570" as="targetPoint" />
          </mxGeometry>
        </mxCell>
        <mxCell id="35-wJfqYu5Ba8Wp97kXi-36" style="edgeStyle=orthogonalEdgeStyle;rounded=0;orthogonalLoop=1;jettySize=auto;html=1;exitX=0.5;exitY=1;exitDx=0;exitDy=0;entryX=0.5;entryY=0;entryDx=0;entryDy=0;" edge="1" parent="1">
          <mxGeometry relative="1" as="geometry">
            <mxPoint x="510" y="-1530" as="sourcePoint" />
            <mxPoint x="510" y="-1520" as="targetPoint" />
          </mxGeometry>
        </mxCell>
        <mxCell id="35-wJfqYu5Ba8Wp97kXi-29" style="edgeStyle=orthogonalEdgeStyle;rounded=0;orthogonalLoop=1;jettySize=auto;html=1;exitX=0.5;exitY=1;exitDx=0;exitDy=0;entryX=1;entryY=0.75;entryDx=0;entryDy=0;" edge="1" parent="1">
          <mxGeometry relative="1" as="geometry">
            <mxPoint x="510" y="-1480" as="sourcePoint" />
            <mxPoint x="395" y="-1450" as="targetPoint" />
          </mxGeometry>
        </mxCell>
        <mxCell id="35-wJfqYu5Ba8Wp97kXi-32" style="edgeStyle=orthogonalEdgeStyle;rounded=0;orthogonalLoop=1;jettySize=auto;html=1;exitX=0;exitY=0.5;exitDx=0;exitDy=0;" edge="1" parent="1">
          <mxGeometry relative="1" as="geometry">
            <mxPoint x="340" y="-1800" as="targetPoint" />
            <mxPoint x="295" y="-1460" as="sourcePoint" />
            <Array as="points">
              <mxPoint x="170" y="-1460" />
              <mxPoint x="170" y="-1800" />
            </Array>
          </mxGeometry>
        </mxCell>
        <mxCell id="35-wJfqYu5Ba8Wp97kXi-45" style="edgeStyle=orthogonalEdgeStyle;rounded=0;orthogonalLoop=1;jettySize=auto;html=1;exitX=0.5;exitY=1;exitDx=0;exitDy=0;" edge="1" parent="1" target="35-wJfqYu5Ba8Wp97kXi-40">
          <mxGeometry relative="1" as="geometry">
            <mxPoint x="692.5" y="-1530" as="sourcePoint" />
          </mxGeometry>
        </mxCell>
        <mxCell id="35-wJfqYu5Ba8Wp97kXi-44" style="edgeStyle=orthogonalEdgeStyle;rounded=0;orthogonalLoop=1;jettySize=auto;html=1;exitX=0.5;exitY=1;exitDx=0;exitDy=0;entryX=0.5;entryY=0;entryDx=0;entryDy=0;" edge="1" parent="1" source="35-wJfqYu5Ba8Wp97kXi-38">
          <mxGeometry relative="1" as="geometry">
            <mxPoint x="692.5" y="-1570" as="targetPoint" />
          </mxGeometry>
        </mxCell>
        <mxCell id="35-wJfqYu5Ba8Wp97kXi-38" value="right = right -1" style="shape=parallelogram;html=1;strokeWidth=2;perimeter=parallelogramPerimeter;whiteSpace=wrap;rounded=1;arcSize=12;size=0.23;" vertex="1" parent="1">
          <mxGeometry x="600" y="-1640" width="190" height="40" as="geometry" />
        </mxCell>
        <mxCell id="35-wJfqYu5Ba8Wp97kXi-39" style="edgeStyle=orthogonalEdgeStyle;rounded=0;orthogonalLoop=1;jettySize=auto;html=1;exitX=1;exitY=0.5;exitDx=0;exitDy=0;exitPerimeter=0;entryX=0.562;entryY=-0.09;entryDx=0;entryDy=0;entryPerimeter=0;" edge="1" parent="1" source="35-wJfqYu5Ba8Wp97kXi-15" target="35-wJfqYu5Ba8Wp97kXi-38">
          <mxGeometry relative="1" as="geometry" />
        </mxCell>
        <mxCell id="35-wJfqYu5Ba8Wp97kXi-47" style="edgeStyle=orthogonalEdgeStyle;rounded=0;orthogonalLoop=1;jettySize=auto;html=1;exitX=1;exitY=0.5;exitDx=0;exitDy=0;exitPerimeter=0;entryX=0.5;entryY=0;entryDx=0;entryDy=0;" edge="1" parent="1" source="35-wJfqYu5Ba8Wp97kXi-40" target="35-wJfqYu5Ba8Wp97kXi-46">
          <mxGeometry relative="1" as="geometry" />
        </mxCell>
        <mxCell id="35-wJfqYu5Ba8Wp97kXi-61" style="edgeStyle=orthogonalEdgeStyle;rounded=0;orthogonalLoop=1;jettySize=auto;html=1;exitX=0.5;exitY=1;exitDx=0;exitDy=0;exitPerimeter=0;" edge="1" parent="1" source="35-wJfqYu5Ba8Wp97kXi-40" target="35-wJfqYu5Ba8Wp97kXi-41">
          <mxGeometry relative="1" as="geometry" />
        </mxCell>
        <mxCell id="35-wJfqYu5Ba8Wp97kXi-40" value="i &amp;gt; left" style="strokeWidth=2;html=1;shape=mxgraph.flowchart.decision;whiteSpace=wrap;" vertex="1" parent="1">
          <mxGeometry x="600" y="-1500" width="140" height="80" as="geometry" />
        </mxCell>
        <mxCell id="35-wJfqYu5Ba8Wp97kXi-54" style="edgeStyle=orthogonalEdgeStyle;rounded=0;orthogonalLoop=1;jettySize=auto;html=1;exitX=1;exitY=0.5;exitDx=0;exitDy=0;exitPerimeter=0;entryX=0.5;entryY=0;entryDx=0;entryDy=0;" edge="1" parent="1" source="35-wJfqYu5Ba8Wp97kXi-41">
          <mxGeometry relative="1" as="geometry">
            <mxPoint x="610" y="-1250" as="targetPoint" />
          </mxGeometry>
        </mxCell>
        <mxCell id="35-wJfqYu5Ba8Wp97kXi-59" style="edgeStyle=orthogonalEdgeStyle;rounded=0;orthogonalLoop=1;jettySize=auto;html=1;exitX=0;exitY=0.5;exitDx=0;exitDy=0;exitPerimeter=0;entryX=0;entryY=0.5;entryDx=0;entryDy=0;" edge="1" parent="1" source="35-wJfqYu5Ba8Wp97kXi-41">
          <mxGeometry relative="1" as="geometry">
            <mxPoint x="400" y="-1055" as="targetPoint" />
            <Array as="points">
              <mxPoint x="390" y="-1320" />
              <mxPoint x="390" y="-1055" />
            </Array>
          </mxGeometry>
        </mxCell>
        <mxCell id="35-wJfqYu5Ba8Wp97kXi-41" value="arr[i-1] &amp;gt; arr[i]" style="strokeWidth=2;html=1;shape=mxgraph.flowchart.decision;whiteSpace=wrap;" vertex="1" parent="1">
          <mxGeometry x="419" y="-1372" width="140" height="100" as="geometry" />
        </mxCell>
        <mxCell id="35-wJfqYu5Ba8Wp97kXi-55" style="edgeStyle=orthogonalEdgeStyle;rounded=0;orthogonalLoop=1;jettySize=auto;html=1;exitX=0.5;exitY=1;exitDx=0;exitDy=0;entryX=0.5;entryY=0;entryDx=0;entryDy=0;" edge="1" parent="1">
          <mxGeometry relative="1" as="geometry">
            <mxPoint x="610" y="-1220" as="sourcePoint" />
            <mxPoint x="610" y="-1200" as="targetPoint" />
          </mxGeometry>
        </mxCell>
        <mxCell id="35-wJfqYu5Ba8Wp97kXi-46" value="left = left +1" style="shape=parallelogram;html=1;strokeWidth=2;perimeter=parallelogramPerimeter;whiteSpace=wrap;rounded=1;arcSize=12;size=0.23;" vertex="1" parent="1">
          <mxGeometry x="710" y="-1400" width="100" height="30" as="geometry" />
        </mxCell>
        <mxCell id="35-wJfqYu5Ba8Wp97kXi-48" style="edgeStyle=orthogonalEdgeStyle;rounded=0;orthogonalLoop=1;jettySize=auto;html=1;entryX=0.5;entryY=0;entryDx=0;entryDy=0;" edge="1" parent="1" target="35-wJfqYu5Ba8Wp97kXi-14">
          <mxGeometry relative="1" as="geometry">
            <mxPoint x="400" y="-940" as="sourcePoint" />
            <mxPoint x="390" y="-1820" as="targetPoint" />
            <Array as="points">
              <mxPoint x="799" y="-970" />
              <mxPoint x="820" y="-970" />
              <mxPoint x="820" y="-1340" />
              <mxPoint x="840" y="-1340" />
              <mxPoint x="840" y="-1850" />
              <mxPoint x="345" y="-1850" />
            </Array>
          </mxGeometry>
        </mxCell>
        <mxCell id="35-wJfqYu5Ba8Wp97kXi-56" style="edgeStyle=orthogonalEdgeStyle;rounded=0;orthogonalLoop=1;jettySize=auto;html=1;exitX=0.5;exitY=1;exitDx=0;exitDy=0;entryX=0.5;entryY=0;entryDx=0;entryDy=0;" edge="1" parent="1">
          <mxGeometry relative="1" as="geometry">
            <mxPoint x="610" y="-1170" as="sourcePoint" />
            <mxPoint x="610" y="-1150" as="targetPoint" />
          </mxGeometry>
        </mxCell>
        <mxCell id="35-wJfqYu5Ba8Wp97kXi-57" style="edgeStyle=orthogonalEdgeStyle;rounded=0;orthogonalLoop=1;jettySize=auto;html=1;exitX=0.5;exitY=1;exitDx=0;exitDy=0;entryX=0.5;entryY=0;entryDx=0;entryDy=0;" edge="1" parent="1">
          <mxGeometry relative="1" as="geometry">
            <mxPoint x="610" y="-1120" as="sourcePoint" />
            <mxPoint x="610" y="-1100" as="targetPoint" />
          </mxGeometry>
        </mxCell>
        <mxCell id="35-wJfqYu5Ba8Wp97kXi-58" style="edgeStyle=orthogonalEdgeStyle;rounded=0;orthogonalLoop=1;jettySize=auto;html=1;exitX=0.5;exitY=1;exitDx=0;exitDy=0;entryX=1;entryY=0.75;entryDx=0;entryDy=0;" edge="1" parent="1">
          <mxGeometry relative="1" as="geometry">
            <mxPoint x="610" y="-1070" as="sourcePoint" />
            <mxPoint x="500" y="-1047.5" as="targetPoint" />
          </mxGeometry>
        </mxCell>
        <mxCell id="35-wJfqYu5Ba8Wp97kXi-60" style="edgeStyle=orthogonalEdgeStyle;rounded=0;orthogonalLoop=1;jettySize=auto;html=1;exitX=0;exitY=0.75;exitDx=0;exitDy=0;" edge="1" parent="1">
          <mxGeometry relative="1" as="geometry">
            <mxPoint x="400" y="-1047.5" as="sourcePoint" />
            <mxPoint x="670" y="-1510" as="targetPoint" />
            <Array as="points">
              <mxPoint x="370" y="-1047" />
              <mxPoint x="370" y="-1420" />
              <mxPoint x="580" y="-1420" />
              <mxPoint x="580" y="-1510" />
            </Array>
          </mxGeometry>
        </mxCell>
        <mxCell id="35-wJfqYu5Ba8Wp97kXi-62" style="edgeStyle=orthogonalEdgeStyle;rounded=0;orthogonalLoop=1;jettySize=auto;html=1;exitX=0.5;exitY=1;exitDx=0;exitDy=0;entryX=0.5;entryY=0;entryDx=0;entryDy=0;entryPerimeter=0;" edge="1" parent="1" target="35-wJfqYu5Ba8Wp97kXi-1">
          <mxGeometry relative="1" as="geometry">
            <mxPoint x="100" y="-1840" as="sourcePoint" />
            <Array as="points">
              <mxPoint x="100" y="-940" />
              <mxPoint x="400" y="-940" />
            </Array>
          </mxGeometry>
        </mxCell>
        <mxCell id="35-wJfqYu5Ba8Wp97kXi-66" value="" style="edgeStyle=orthogonalEdgeStyle;rounded=0;orthogonalLoop=1;jettySize=auto;html=1;exitX=1;exitY=0.5;exitDx=0;exitDy=0;exitPerimeter=0;entryX=0.62;entryY=0.09;entryDx=0;entryDy=0;entryPerimeter=0;" edge="1" parent="1" source="35-wJfqYu5Ba8Wp97kXi-16" target="35-wJfqYu5Ba8Wp97kXi-65">
          <mxGeometry relative="1" as="geometry">
            <mxPoint x="425" y="-1685" as="sourcePoint" />
            <mxPoint x="522" y="-1676.4" as="targetPoint" />
            <Array as="points" />
          </mxGeometry>
        </mxCell>
        <mxCell id="35-wJfqYu5Ba8Wp97kXi-65" value="int tmp = arr[i]" style="rounded=1;whiteSpace=wrap;html=1;absoluteArcSize=1;arcSize=14;strokeWidth=2;" vertex="1" parent="1">
          <mxGeometry x="450" y="-1680" width="110" height="40" as="geometry" />
        </mxCell>
        <mxCell id="35-wJfqYu5Ba8Wp97kXi-69" value="break" style="rounded=1;whiteSpace=wrap;html=1;absoluteArcSize=1;arcSize=14;strokeWidth=2;" vertex="1" parent="1">
          <mxGeometry x="50" y="-1890" width="100" height="50" as="geometry" />
        </mxCell>
        <mxCell id="35-wJfqYu5Ba8Wp97kXi-70" value="arr[i] = arr[i+1]" style="rounded=1;whiteSpace=wrap;html=1;absoluteArcSize=1;arcSize=14;strokeWidth=2;" vertex="1" parent="1">
          <mxGeometry x="455" y="-1620" width="100" height="40" as="geometry" />
        </mxCell>
        <mxCell id="35-wJfqYu5Ba8Wp97kXi-71" value="arr[i+1] = tmp" style="rounded=1;whiteSpace=wrap;html=1;absoluteArcSize=1;arcSize=14;strokeWidth=2;" vertex="1" parent="1">
          <mxGeometry x="460" y="-1570" width="100" height="40" as="geometry" />
        </mxCell>
        <mxCell id="35-wJfqYu5Ba8Wp97kXi-72" value="flag = 1" style="rounded=1;whiteSpace=wrap;html=1;absoluteArcSize=1;arcSize=14;strokeWidth=2;" vertex="1" parent="1">
          <mxGeometry x="460" y="-1520" width="100" height="40" as="geometry" />
        </mxCell>
        <mxCell id="35-wJfqYu5Ba8Wp97kXi-73" value="i = i+1" style="rounded=1;whiteSpace=wrap;html=1;absoluteArcSize=1;arcSize=14;strokeWidth=2;" vertex="1" parent="1">
          <mxGeometry x="295" y="-1480" width="100" height="40" as="geometry" />
        </mxCell>
        <mxCell id="35-wJfqYu5Ba8Wp97kXi-75" value="i = tight" style="rounded=1;whiteSpace=wrap;html=1;absoluteArcSize=1;arcSize=14;strokeWidth=2;" vertex="1" parent="1">
          <mxGeometry x="645" y="-1570" width="100" height="40" as="geometry" />
        </mxCell>
        <mxCell id="35-wJfqYu5Ba8Wp97kXi-76" value="i = i-1&lt;div&gt;&lt;br&gt;&lt;/div&gt;" style="rounded=1;whiteSpace=wrap;html=1;absoluteArcSize=1;arcSize=14;strokeWidth=2;" vertex="1" parent="1">
          <mxGeometry x="400" y="-1070" width="100" height="50" as="geometry" />
        </mxCell>
        <mxCell id="35-wJfqYu5Ba8Wp97kXi-77" value="int tmp = arr[i]" style="rounded=1;whiteSpace=wrap;html=1;absoluteArcSize=1;arcSize=14;strokeWidth=2;" vertex="1" parent="1">
          <mxGeometry x="560" y="-1250" width="110" height="40" as="geometry" />
        </mxCell>
        <mxCell id="35-wJfqYu5Ba8Wp97kXi-78" value="arr[i] = arr[i-1]" style="rounded=1;whiteSpace=wrap;html=1;absoluteArcSize=1;arcSize=14;strokeWidth=2;" vertex="1" parent="1">
          <mxGeometry x="565" y="-1200" width="100" height="40" as="geometry" />
        </mxCell>
        <mxCell id="35-wJfqYu5Ba8Wp97kXi-79" value="arr [i-1] = tmp" style="rounded=1;whiteSpace=wrap;html=1;absoluteArcSize=1;arcSize=14;strokeWidth=2;" vertex="1" parent="1">
          <mxGeometry x="565" y="-1150" width="100" height="30" as="geometry" />
        </mxCell>
        <mxCell id="35-wJfqYu5Ba8Wp97kXi-80" value="flag = 1" style="rounded=1;whiteSpace=wrap;html=1;absoluteArcSize=1;arcSize=14;strokeWidth=2;" vertex="1" parent="1">
          <mxGeometry x="565" y="-1100" width="100" height="40" as="geometry" />
        </mxCell>
      </root>
    </mxGraphModel>
  </diagram>
</mxfile>
